<?xml version="1.0" encoding="UTF-8"?>
<svg version="1.1" xmlns="http://www.w3.org/2000/svg" width="512" height="512">
<path d="M0 0 C9.05072196 4.06358945 15.58415025 14.67274927 21.68359375 22.21484375 C24.04600418 25.05531362 26.49829028 27.78175899 29 30.5 C33.11378909 34.9698512 36.97087297 39.59044893 40.78515625 44.31640625 C42.95632827 46.94708557 45.20241357 49.47942424 47.5 52 C51.43274988 56.31576553 55.13724727 60.77527832 58.77734375 65.33984375 C60.95098801 68.02175452 60.95098801 68.02175452 63.37890625 70.37890625 C68.7542735 75.7542735 68.7542735 75.7542735 69.44921875 79.27734375 C69.01828038 86.48017083 65.08596777 91.7684996 60.3125 96.875 C56.02277746 99.62689748 51.99729432 100.33830293 47 101 C47.72703125 101.84820312 48.4540625 102.69640625 49.203125 103.5703125 C57.46875 113.21354167 65.734375 122.85677083 74 132.5 C74.74358765 133.3674585 74.74358765 133.3674585 75.50219727 134.25244141 C76.49503414 135.410832 77.4877118 136.56935908 78.48022461 137.72802734 C81.08848348 140.77249724 83.70004779 143.81404906 86.31640625 146.8515625 C86.85974609 147.48320312 87.40308594 148.11484375 87.96289062 148.765625 C89.00093012 149.97223501 90.03993595 151.17801461 91.08007812 152.3828125 C98.59134584 161.12019936 98.59134584 161.12019936 98.34375 166.66015625 C97.0727747 175.31145406 93.42670828 182.12085879 87 188 C82.78125 191 82.78125 191 80 191 C82.14500592 194.86101066 84.60324671 197.91138935 87.625 201.125 C91.86299071 205.70744279 95.84120855 210.42773106 99.7578125 215.28515625 C102.77213931 218.93490735 105.94714062 222.42405401 109.15234375 225.90625 C113.07824315 230.35504932 113.49320725 233.13356853 113.37890625 238.88671875 C112.356452 247.28770885 108.37620964 255.38893551 102 261 C94.1197057 267.12729744 87.22335998 268.4516202 77.41796875 267.38671875 C75 267 75 267 72 266 C71.814375 266.66 71.62875 267.32 71.4375 268 C67.94666354 275.28522391 62.57056328 280.23713464 55 283 C46.45488706 285.48952109 38.94503132 283.72126253 31 280 C30.34 279.34 29.68 278.68 29 278 C31.29743315 301.60763578 33.74999712 325.19239094 36.42456055 348.76049805 C36.58220131 350.15659805 36.58220131 350.15659805 36.74302673 351.5809021 C36.94044314 353.32775918 37.13930557 355.07445367 37.33985901 356.82095337 C37.68747351 359.8978318 38 362.90071019 38 366 C43.28 366 48.56 366 54 366 C54 376.23 54 386.46 54 397 C-95.49 397 -244.98 397 -399 397 C-399 386.77 -399 376.54 -399 366 C-389.76 366 -380.52 366 -371 366 C-370.34 364.35 -369.68 362.7 -369 361 C-368.08948724 359.28990244 -367.14754599 357.59627655 -366.1796875 355.91796875 C-365.37724609 354.52094727 -365.37724609 354.52094727 -364.55859375 353.09570312 C-363.72521484 351.65614258 -363.72521484 351.65614258 -362.875 350.1875 C-362.31167969 349.20845703 -361.74835938 348.22941406 -361.16796875 347.22070312 C-359.78155585 344.81210445 -358.39214945 342.40528605 -357 340 C-358.65 339.67 -360.3 339.34 -362 339 C-362 334.05 -362 329.1 -362 324 C-357.05 324 -352.1 324 -347 324 C-346.34 322.35 -345.68 320.7 -345 319 C-344.03308685 317.13501929 -343.03557987 315.28572798 -342.015625 313.44921875 C-341.41741943 312.37075684 -340.81921387 311.29229492 -340.20288086 310.18115234 C-339.55215348 309.0164714 -338.90118697 307.85192404 -338.25 306.6875 C-337.75163132 305.79288055 -337.75163132 305.79288055 -337.24319458 304.88018799 C-332.02195571 295.5088615 -326.66952181 286.22013106 -321.23071289 276.97314453 C-316.14320902 268.30447245 -311.22813903 259.54479685 -306.35327148 250.75537109 C-305.79712158 249.7545752 -305.24097168 248.7537793 -304.66796875 247.72265625 C-304.17578857 246.83328369 -303.6836084 245.94391113 -303.17651367 245.02758789 C-302 243 -302 243 -301 242 C-300.88971179 239.24395983 -300.84503152 236.51244165 -300.84178162 233.75547791 C-300.83684364 232.88074328 -300.83190566 232.00600865 -300.82681805 231.10476691 C-300.8113633 228.15049442 -300.80306097 225.19624378 -300.79467773 222.24194336 C-300.78510547 220.1334463 -300.77509578 218.02495119 -300.76467896 215.91645813 C-300.7375532 210.17291126 -300.71658531 204.4293561 -300.69667697 198.68578029 C-300.67486456 192.69061557 -300.64745274 186.69547661 -300.62062073 180.70033264 C-300.57062947 169.33893769 -300.52571459 157.97752851 -300.48259836 146.61610562 C-300.43328084 133.68523526 -300.37834244 120.75439074 -300.32291877 107.82354534 C-300.20900001 81.21572097 -300.10218263 54.60787184 -300 28 C-303.3 28 -306.6 28 -310 28 C-310 20.08 -310 12.16 -310 4 C-281.29 4 -252.58 4 -223 4 C-223 11.92 -223 19.84 -223 28 C-225.97 28 -228.94 28 -232 28 C-231.67 58.03 -231.34 88.06 -231 119 C-224.07 106.625 -224.07 106.625 -217 94 C-210 82 -210 82 -206.53125 76.10546875 C-204.0239327 71.81091661 -201.60045523 67.47872197 -199.21875 63.11328125 C-198.59613281 61.97697266 -197.97351563 60.84066406 -197.33203125 59.66992188 C-196.14157448 57.4882639 -194.96128237 55.30101758 -193.79296875 53.10742188 C-190.31593384 46.74668857 -187.44367523 41.83876216 -180.5078125 38.96875 C-174.51977342 37.7907751 -170.28630782 37.78239348 -165 41 C-159.2988478 46.82962887 -155.57020114 53.60417466 -151.625 60.6875 C-150.92544844 61.92989782 -150.22507362 63.17183242 -149.52392578 64.41333008 C-148.06949173 66.98996987 -146.61859615 69.56855545 -145.16992188 72.1484375 C-143.09478719 75.83849368 -140.99723271 79.51533805 -138.890625 83.1875 C-138.55749802 83.76827805 -138.22437103 84.34905609 -137.88114929 84.94743347 C-137.21243756 86.11304864 -136.54367052 87.27863208 -135.87484741 88.44418335 C-130.45909122 97.88700216 -125.10873892 107.36456538 -119.8125 116.875 C-113.40897503 128.37015299 -106.75694433 139.70955028 -100 151 C-92.23237833 143.3150126 -85.07467625 135.18303472 -78.21484375 126.68359375 C-75.34515753 123.20656654 -72.31435682 119.89307321 -69.27734375 116.5625 C-66.01272019 112.88909853 -62.92978016 109.07683463 -59.84765625 105.25 C-58 103 -58 103 -56 101 C-56.65226562 100.90203125 -57.30453125 100.8040625 -57.9765625 100.703125 C-64.84517211 99.52796465 -69.3487004 97.79859402 -74.25 92.625 C-77.62648038 87.56027943 -78.48645809 83.03856645 -78 77 C-76.34765625 74.26171875 -76.34765625 74.26171875 -74.0625 71.6875 C-73.23878906 70.74261719 -72.41507812 69.79773438 -71.56640625 68.82421875 C-70.71949219 67.89222656 -69.87257813 66.96023437 -69 66 C-67.86884766 64.74123047 -67.86884766 64.74123047 -66.71484375 63.45703125 C-65.23107948 61.81102116 -63.74274349 60.16912133 -62.25 58.53125 C-59.92137947 55.9115519 -57.70437053 53.2248469 -55.5 50.5 C-51.88967558 46.03723787 -48.11572071 41.77280467 -44.25 37.53125 C-41.92137947 34.9115519 -39.70437053 32.2248469 -37.5 29.5 C-33.89599442 25.04504865 -30.13348711 20.78484169 -26.265625 16.55859375 C-23.06645871 12.94574216 -20.10082543 9.15754384 -17.140625 5.34765625 C-12.07414515 -0.20882986 -7.21422152 -0.9922473 0 0 Z " fill="#6D3135" transform="translate(399,98)"/>
<path d="M0 0 C3.77016416 1.25672139 4.00711403 2.29562331 5.86328125 5.72265625 C6.41322754 6.72393555 6.96317383 7.72521484 7.52978516 8.75683594 C8.11808105 9.84770508 8.70637695 10.93857422 9.3125 12.0625 C10.57492648 14.36171937 11.83929962 16.65987081 13.10546875 18.95703125 C13.58983398 19.83867447 13.58983398 19.83867447 14.08398438 20.73812866 C17.33054293 26.63485037 20.71500514 32.44676717 24.125 38.25 C28.61934139 45.91722445 33.08835473 53.59734124 37.5 61.3125 C37.96809082 62.12944336 38.43618164 62.94638672 38.91845703 63.78808594 C41.29359015 67.94946213 43.6227783 72.13133371 45.90625 76.34375 C49.17078429 82.35026201 52.57442719 88.27171063 56 94.1875 C56.65009033 95.31317383 57.30018066 96.43884766 57.9699707 97.59863281 C61.18432541 103.16116807 64.41404399 108.71439232 67.66796875 114.25390625 C73.89657061 124.86165871 79.97232626 135.52161607 85.81542969 146.34692383 C88.90699302 152.05534125 92.12708829 157.65160648 95.50830078 163.19213867 C102.55687798 174.79025206 109.06412042 186.72131331 115.6640625 198.578125 C116.57828979 200.2180542 116.57828979 200.2180542 117.51098633 201.89111328 C118.66980407 203.97130027 119.82609986 206.05289523 120.97924805 208.13623047 C123.83605641 213.26593656 126.78572638 218.30905998 129.890625 223.29296875 C134.3329418 230.45190234 138.39759038 237.79614205 142.4375 245.1875 C143.16311924 246.50862408 143.88902958 247.82958832 144.61523438 249.15039062 C149.74743401 258.49486802 149.74743401 258.49486802 151 261 C122.95 261 94.9 261 66 261 C66 265.95 66 270.9 66 276 C69.63 276 73.26 276 77 276 C77 285.24 77 294.48 77 304 C69.08 304 61.16 304 53 304 C53 260.77 53 217.54 53 173 C20 173 -13 173 -47 173 C-47 215.9 -47 258.8 -47 303 C-43.37 303 -39.74 303 -36 303 C-36 263.73 -36 224.46 -36 184 C-10.26 184 15.48 184 42 184 C42 223.6 42 263.2 42 304 C4.71 304 -32.58 304 -71 304 C-71 294.76 -71 285.52 -71 276 C-67.37 276 -63.74 276 -60 276 C-60 271.05 -60 266.1 -60 261 C-89.04 261 -118.08 261 -148 261 C-143.14398342 251.28796685 -138.34713592 241.8307599 -132.875 232.5 C-131.91339966 230.84532715 -131.91339966 230.84532715 -130.93237305 229.15722656 C-127.74928388 223.68488934 -124.54568046 218.22465736 -121.33984375 212.765625 C-120.16360721 210.7606837 -118.98782042 208.75547848 -117.8125 206.75 C-117.23419434 205.76322266 -116.65588867 204.77644531 -116.06005859 203.75976562 C-111.73543639 196.344731 -107.60815065 188.83626269 -103.53393555 181.28149414 C-99.30673499 173.47802191 -94.85007775 165.82133265 -90.3515625 158.171875 C-86.14145803 150.99807857 -82.04376994 143.76871326 -78 136.5 C-70.2477952 122.57756207 -62.2159019 108.82398976 -54.109375 95.10546875 C-50.17570807 88.44744252 -46.27696763 81.79024046 -42.609375 74.98046875 C-36.99370282 64.58057099 -31.21317636 54.2821713 -25.18383789 44.11669922 C-20.94626948 36.95247074 -16.8153306 29.72776013 -12.6875 22.5 C-12.17071686 21.59583344 -12.17071686 21.59583344 -11.64349365 20.67340088 C-7.71935667 13.80598554 -3.81788496 6.92720308 0 0 Z " fill="#924A34" transform="translate(223,161)"/>
<path d="M0 0 C9.05072196 4.06358945 15.58415025 14.67274927 21.68359375 22.21484375 C24.04600418 25.05531362 26.49829028 27.78175899 29 30.5 C33.11378909 34.9698512 36.97087297 39.59044893 40.78515625 44.31640625 C42.95632827 46.94708557 45.20241357 49.47942424 47.5 52 C51.43274988 56.31576553 55.13724727 60.77527832 58.77734375 65.33984375 C60.95098801 68.02175452 60.95098801 68.02175452 63.37890625 70.37890625 C68.7542735 75.7542735 68.7542735 75.7542735 69.44921875 79.27734375 C69.01828038 86.48017083 65.08596777 91.7684996 60.3125 96.875 C56.02277746 99.62689748 51.99729432 100.33830293 47 101 C47.72703125 101.84820312 48.4540625 102.69640625 49.203125 103.5703125 C61.6015625 118.03515625 61.6015625 118.03515625 74 132.5 C74.74358765 133.3674585 74.74358765 133.3674585 75.50219727 134.25244141 C76.49503414 135.410832 77.4877118 136.56935908 78.48022461 137.72802734 C81.08848348 140.77249724 83.70004779 143.81404906 86.31640625 146.8515625 C86.85974609 147.48320312 87.40308594 148.11484375 87.96289062 148.765625 C89.00093012 149.97223501 90.03993595 151.17801461 91.08007812 152.3828125 C98.59134584 161.12019936 98.59134584 161.12019936 98.34375 166.66015625 C97.0727747 175.31145406 93.42670828 182.12085879 87 188 C82.78125 191 82.78125 191 80 191 C82.14500592 194.86101066 84.60324671 197.91138935 87.625 201.125 C91.86299071 205.70744279 95.84120855 210.42773106 99.7578125 215.28515625 C102.77213931 218.93490735 105.94714062 222.42405401 109.15234375 225.90625 C113.07824315 230.35504932 113.49320725 233.13356853 113.37890625 238.88671875 C112.356452 247.28770885 108.37620964 255.38893551 102 261 C94.1197057 267.12729744 87.22335998 268.4516202 77.41796875 267.38671875 C75 267 75 267 72 266 C71.814375 266.66 71.62875 267.32 71.4375 268 C67.94666354 275.28522391 62.57056328 280.23713464 55 283 C46.56707253 285.45683714 38.75724288 283.95044776 31 280 C28.64486156 278.14306392 26.94331492 276.31096909 25 274 C24.81566406 274.60585938 24.63132812 275.21171875 24.44140625 275.8359375 C21.20591415 285.18291467 14.87657245 293.36874481 6 298 C-1.91995483 300.9333166 -8.72926013 300.86772054 -16.44702148 297.64697266 C-21.58486612 294.33245608 -23.88877002 288.79220395 -26.625 283.5 C-27.30541262 282.24046383 -27.98907459 280.9826782 -28.67578125 279.7265625 C-30.09759852 277.11985629 -31.50524978 274.50623251 -32.90332031 271.88671875 C-36.13980574 265.85087774 -39.58030862 259.93340407 -43 254 C-44.33547075 251.66788614 -45.66772869 249.33394271 -47 247 C-47.66660752 245.83329954 -48.33327417 244.66663285 -49 243.5 C-69 208.5 -69 208.5 -69.99977112 206.75036621 C-70.6671613 205.58245631 -71.33459097 204.41456898 -72.00205994 203.2467041 C-73.65798016 200.34924103 -75.31308273 197.45131835 -76.96704102 194.55273438 C-80.09471158 189.07321953 -83.22870575 183.59769077 -86.38485718 178.13452148 C-87.8787355 175.54779797 -89.36907122 172.95904185 -90.85913086 170.37011719 C-91.57187656 169.13406736 -92.28636537 167.89902084 -93.00268555 166.66503906 C-93.99445054 164.95631013 -94.97979415 163.24385902 -95.96484375 161.53125 C-96.5280835 160.55736328 -97.09132324 159.58347656 -97.67163086 158.58007812 C-98.83945267 156.31182947 -99.699378 154.52653337 -100 152 C-98.4453125 149.80859375 -98.4453125 149.80859375 -96.125 147.4375 C-92.76096738 143.89120555 -89.56057561 140.31220107 -86.5 136.5 C-83.5918662 132.9052235 -80.61458668 129.41739372 -77.5 126 C-73.57334591 121.69092394 -69.88501778 117.22650966 -66.21875 112.6953125 C-62.9257499 108.69501308 -59.47871594 104.83890997 -56 101 C-56.65226562 100.90203125 -57.30453125 100.8040625 -57.9765625 100.703125 C-64.84517211 99.52796465 -69.3487004 97.79859402 -74.25 92.625 C-77.62648038 87.56027943 -78.48645809 83.03856645 -78 77 C-76.34765625 74.26171875 -76.34765625 74.26171875 -74.0625 71.6875 C-72.82693359 70.27017578 -72.82693359 70.27017578 -71.56640625 68.82421875 C-70.71949219 67.89222656 -69.87257813 66.96023437 -69 66 C-68.24589844 65.16082031 -67.49179687 64.32164062 -66.71484375 63.45703125 C-65.23107948 61.81102116 -63.74274349 60.16912133 -62.25 58.53125 C-59.92137947 55.9115519 -57.70437053 53.2248469 -55.5 50.5 C-51.88967558 46.03723787 -48.11572071 41.77280467 -44.25 37.53125 C-41.92137947 34.9115519 -39.70437053 32.2248469 -37.5 29.5 C-33.89599442 25.04504865 -30.13348711 20.78484169 -26.265625 16.55859375 C-23.06645871 12.94574216 -20.10082543 9.15754384 -17.140625 5.34765625 C-12.07414515 -0.20882986 -7.21422152 -0.9922473 0 0 Z " fill="#19BE74" transform="translate(399,98)"/>
<path d="M0 0 C0.66 0 1.32 0 2 0 C2.66925358 8.86760996 0.33719245 16.64097665 -5.4375 23.5 C-8.0366057 26.22181027 -10.54024755 28.41839888 -14 30 C-14.66 30 -15.32 30 -16 30 C-13.85499408 33.86101066 -11.39675329 36.91138935 -8.375 40.125 C-4.13700929 44.70744279 -0.15879145 49.42773106 3.7578125 54.28515625 C6.77213931 57.93490735 9.94714062 61.42405401 13.15234375 64.90625 C17.07824315 69.35504932 17.49320725 72.13356853 17.37890625 77.88671875 C16.356452 86.28770885 12.37620964 94.38893551 6 100 C-1.8802943 106.12729744 -8.77664002 107.4516202 -18.58203125 106.38671875 C-21 106 -21 106 -24 105 C-24.185625 105.66 -24.37125 106.32 -24.5625 107 C-28.05333646 114.28522391 -33.42943672 119.23713464 -41 122 C-49.43292747 124.45683714 -57.24275712 122.95044776 -65 119 C-67.35513844 117.14306392 -69.05668508 115.31096909 -71 113 C-71.18433594 113.60585938 -71.36867188 114.21171875 -71.55859375 114.8359375 C-74.79408585 124.18291467 -81.12342755 132.36874481 -90 137 C-97.91995483 139.9333166 -104.72926013 139.86772054 -112.44702148 136.64697266 C-117.58486612 133.33245608 -119.88877002 127.79220395 -122.625 122.5 C-123.30541262 121.24046383 -123.98907459 119.9826782 -124.67578125 118.7265625 C-126.09759852 116.11985629 -127.50524978 113.50623251 -128.90332031 110.88671875 C-132.13980574 104.85087774 -135.58030862 98.93340407 -139 93 C-140.33547075 90.66788614 -141.66772869 88.33394271 -143 86 C-143.66660752 84.83329954 -144.33327417 83.66663285 -145 82.5 C-149 75.5 -149 75.5 -149.99977112 73.75036621 C-150.6671613 72.58245631 -151.33459097 71.41456898 -152.00205994 70.2467041 C-153.65798016 67.34924103 -155.31308273 64.45131835 -156.96704102 61.55273438 C-160.09471158 56.07321953 -163.22870575 50.59769077 -166.38485718 45.13452148 C-167.8787355 42.54779797 -169.36907122 39.95904185 -170.85913086 37.37011719 C-171.57187656 36.13406736 -172.28636537 34.89902084 -173.00268555 33.66503906 C-173.99445054 31.95631013 -174.97979415 30.24385902 -175.96484375 28.53125 C-176.5280835 27.55736328 -177.09132324 26.58347656 -177.67163086 25.58007812 C-179 23 -179 23 -180 19 C-173.565 18.505 -173.565 18.505 -167 18 C-166.2265625 19.299375 -166.2265625 19.299375 -165.4375 20.625 C-161.84926751 25.99462451 -157.17668822 30.00810942 -151 32 C-141.55733921 33.12009494 -135.46430083 31.34822562 -128 25.75 C-127.34 25.1725 -126.68 24.595 -126 24 C-125.79246094 24.6290625 -125.58492188 25.258125 -125.37109375 25.90625 C-122.54754084 33.75076519 -118.65979748 40.10453148 -111.375 44.5 C-104.97866409 47.25191196 -97.66303123 47.33155456 -91.15234375 44.96484375 C-83.72063321 40.94073503 -79.62723733 35.21602399 -76.625 27.4375 C-76.41875 26.633125 -76.2125 25.82875 -76 25 C-73.92353453 25.99188306 -71.98041962 27.01302727 -70.0625 28.2890625 C-63.79445028 32.34904925 -58.36178003 33.04046491 -51 32 C-42.7342692 29.85141554 -38.57725018 24.86587526 -34 18 C-31.3925267 17.88364822 -28.96823306 17.91750579 -26.375 18.0625 C-20.04065111 18.21975304 -15.01454723 18.194411 -10 14 C-5.64708956 9.8417319 -2.35413908 5.53915078 0 0 Z " fill="#19BE74" transform="translate(495,259)"/>
<path d="M0 0 C28.71 0 57.42 0 87 0 C87 7.92 87 15.84 87 24 C84.03 24 81.06 24 78 24 C78.02886795 25.13687256 78.0577359 26.27374512 78.08747864 27.44506836 C78.35339036 38.2680533 78.54699985 49.09035876 78.67355824 59.91589355 C78.74081936 65.47902705 78.83171125 71.03948211 78.98071289 76.60107422 C80.19053784 122.98269196 80.19053784 122.98269196 66.56033325 140.92169189 C64.45796464 143.72197172 62.83930532 146.64391266 61.16015625 149.71484375 C60.13105875 151.45777352 59.0986148 153.19873263 58.0625 154.9375 C53.26917731 163.06835558 48.58801235 171.25157819 44 179.5 C38.82211098 188.80194834 33.52460959 198.0252226 28.14013672 207.20898438 C22.34660556 217.0937133 16.66240152 227.03970681 11 237 C10.67 237 10.34 237 10 237 C10 166.71 10 96.42 10 24 C6.7 24 3.4 24 0 24 C0 16.08 0 8.16 0 0 Z " fill="#A2553A" transform="translate(89,102)"/>
<path d="M0 0 C3.77016416 1.25672139 4.00711403 2.29562331 5.86328125 5.72265625 C6.41322754 6.72393555 6.96317383 7.72521484 7.52978516 8.75683594 C8.11808105 9.84770508 8.70637695 10.93857422 9.3125 12.0625 C10.57492648 14.36171937 11.83929962 16.65987081 13.10546875 18.95703125 C13.58983398 19.83867447 13.58983398 19.83867447 14.08398438 20.73812866 C17.33054293 26.63485037 20.71500514 32.44676717 24.125 38.25 C28.61934139 45.91722445 33.08835473 53.59734124 37.5 61.3125 C37.96809082 62.12944336 38.43618164 62.94638672 38.91845703 63.78808594 C41.29359015 67.94946213 43.6227783 72.13133371 45.90625 76.34375 C49.1707852 82.35026369 52.57447927 88.27167864 56 94.1875 C56.64283936 95.30084717 57.28567871 96.41419434 57.94799805 97.5612793 C61.28600851 103.33611477 64.64084346 109.1004285 68.01953125 114.8515625 C68.65697266 115.93800049 69.29441406 117.02443848 69.95117188 118.14379883 C71.16676196 120.21320382 72.38538069 122.28083355 73.60742188 124.34643555 C74.15591797 125.28011963 74.70441406 126.21380371 75.26953125 127.17578125 C75.75010986 127.98958252 76.23068848 128.80338379 76.72583008 129.6418457 C78 132 78 132 80 137 C28.19 137 -23.62 137 -77 137 C-75.56570577 132.69711731 -74.46049032 129.76244844 -72.234375 126.0078125 C-71.68072266 125.06703857 -71.12707031 124.12626465 -70.55664062 123.15698242 C-69.96044922 122.15642822 -69.36425781 121.15587402 -68.75 120.125 C-67.48427232 117.97792511 -66.21865046 115.83078784 -64.953125 113.68359375 C-64.30150391 112.58257324 -63.64988281 111.48155273 -62.97851562 110.34716797 C-59.80079829 104.97124193 -56.64972846 99.57985556 -53.5 94.1875 C-52.93764648 93.22924316 -52.37529297 92.27098633 -51.79589844 91.28369141 C-48.0736478 84.91995081 -44.50792153 78.48391415 -41 72 C-35.86868962 62.62108258 -30.63770437 53.3119248 -25.18383789 44.11669922 C-20.94626948 36.95247074 -16.8153306 29.72776013 -12.6875 22.5 C-12.34297791 21.89722229 -11.99845581 21.29444458 -11.64349365 20.67340088 C-7.71935667 13.80598554 -3.81788496 6.92720308 0 0 Z " fill="#874430" transform="translate(223,161)"/>
<path d="M0 0 C25.08 0 50.16 0 76 0 C76 38.94 76 77.88 76 118 C50.92 118 25.84 118 0 118 C0 79.06 0 40.12 0 0 Z " fill="#A3563A" transform="translate(188,346)"/>
<path d="M0 0 C149.49 0 298.98 0 453 0 C453 5.28 453 10.56 453 16 C303.51 16 154.02 16 0 16 C0 10.72 0 5.44 0 0 Z " fill="#622C30" transform="translate(0,479)"/>
<path d="M0 0 C28.71 0 57.42 0 87 0 C87 7.92 87 15.84 87 24 C84.03 24 81.06 24 78 24 C78 38.85 78 53.7 78 69 C55.56 69 33.12 69 10 69 C10 54.15 10 39.3 10 24 C6.7 24 3.4 24 0 24 C0 16.08 0 8.16 0 0 Z " fill="#A2553A" transform="translate(89,102)"/>
<path d="M0 0 C0.67979919 -0.02102783 1.35959839 -0.04205566 2.05999756 -0.0637207 C8.35043507 -0.24701423 14.64275152 -0.35284809 20.93523502 -0.4358654 C25.16300252 -0.49242524 29.38695963 -0.57380645 33.61279297 -0.71582031 C37.69924562 -0.85259 41.78224971 -0.92474793 45.8708477 -0.95251846 C47.4249353 -0.97392988 48.97888983 -1.01785653 50.53166389 -1.08523178 C55.40718012 -1.28697296 59.80858108 -1.24574491 64.49584961 0.31982422 C68.2542877 4.28059112 70.28028969 8.31926081 72.49584961 13.31982422 C73.24223205 14.59744658 74.0072473 15.86484462 74.80834961 17.10888672 C75.36522461 18.04474609 75.92209961 18.98060547 76.49584961 19.94482422 C77.36209961 21.38728516 77.36209961 21.38728516 78.24584961 22.85888672 C79.49584961 25.31982422 79.49584961 25.31982422 79.49584961 28.31982422 C72.56584961 28.31982422 65.63584961 28.31982422 58.49584961 28.31982422 C59.43428711 29.96853516 60.37272461 31.61724609 61.33959961 33.31591797 C62.55846142 35.46298992 63.77720536 37.61012878 64.99584961 39.75732422 C65.9259082 41.39024414 65.9259082 41.39024414 66.87475586 43.05615234 C67.4612793 44.090625 68.04780273 45.12509766 68.65209961 46.19091797 C69.46904297 47.62842407 69.46904297 47.62842407 70.30249023 49.0949707 C71.49584961 51.31982422 71.49584961 51.31982422 71.49584961 52.31982422 C36.18584961 52.31982422 0.87584961 52.31982422 -35.50415039 52.31982422 C-33.96211499 47.69371802 -32.54480858 44.33962457 -30.16040039 40.20654297 C-29.83475601 39.63880157 -29.50911163 39.07106018 -29.17359924 38.4861145 C-28.12242924 36.65673033 -27.06353654 34.83196058 -26.00415039 33.00732422 C-25.27908265 31.74997318 -24.55439363 30.49240367 -23.83007812 29.23461914 C-21.72950813 25.5916349 -19.61797694 21.95513284 -17.50415039 18.31982422 C-16.93841309 17.34561523 -16.37267578 16.37140625 -15.78979492 15.36767578 C-14.38586492 12.95365014 -12.97822217 10.54188795 -11.56665039 8.13232422 C-11.1605957 7.43905029 -10.75454102 6.74577637 -10.33618164 6.03149414 C-7.03371669 0.43605451 -6.55782558 0.19642326 0 0 Z " fill="#954C34" transform="translate(206.504150390625,241.68017578125)"/>
<path d="M0 0 C0.66 0 1.32 0 2 0 C2.66925358 8.86760996 0.33719245 16.64097665 -5.4375 23.5 C-8.0366057 26.22181027 -10.54024755 28.41839888 -14 30 C-14.66 30 -15.32 30 -16 30 C-15.525625 30.78375 -15.05125 31.5675 -14.5625 32.375 C-13.66101977 33.88948678 -12.78820515 35.4235897 -12 37 C-17.82323138 39.54104642 -22.63041237 40.68717543 -29 40 C-29.66 39.67 -30.32 39.34 -31 39 C-31.38865234 39.88171875 -31.38865234 39.88171875 -31.78515625 40.78125 C-35.47131213 47.51352183 -42.18949263 51.08586129 -49.2734375 53.33984375 C-58.2559977 55.51470431 -64.91543676 53.04228162 -73 49 C-73.20625 49.680625 -73.4125 50.36125 -73.625 51.0625 C-77.71669242 59.8038429 -84.33931825 63.27578187 -93 67 C-99.96034334 69.32011445 -106.84206765 68.39881082 -113.4765625 65.46875 C-120.11444351 61.60521554 -125.34120892 56.03090079 -130 50 C-130.90878906 50.433125 -130.90878906 50.433125 -131.8359375 50.875 C-138.94441311 54.0246015 -145.08826256 55.5344698 -152.67578125 53.1640625 C-155.16019355 52.18502002 -157.57497404 51.11673464 -160 50 C-160.79519043 49.77231934 -161.59038086 49.54463867 -162.40966797 49.31005859 C-165.94435361 47.52239383 -166.88918581 45.42808251 -168.76953125 41.96875 C-169.09539719 41.37703003 -169.42126312 40.78531006 -169.75700378 40.17565918 C-170.44027368 38.92868263 -171.11644844 37.67779512 -171.78588867 36.42333984 C-172.81304468 34.49897956 -173.86038347 32.58680527 -174.91210938 30.67578125 C-180 21.34399534 -180 21.34399534 -180 19 C-173.565 18.505 -173.565 18.505 -167 18 C-166.2265625 19.299375 -166.2265625 19.299375 -165.4375 20.625 C-161.84926751 25.99462451 -157.17668822 30.00810942 -151 32 C-141.55733921 33.12009494 -135.46430083 31.34822562 -128 25.75 C-127.34 25.1725 -126.68 24.595 -126 24 C-125.79246094 24.6290625 -125.58492188 25.258125 -125.37109375 25.90625 C-122.54754084 33.75076519 -118.65979748 40.10453148 -111.375 44.5 C-104.97866409 47.25191196 -97.66303123 47.33155456 -91.15234375 44.96484375 C-83.72063321 40.94073503 -79.62723733 35.21602399 -76.625 27.4375 C-76.41875 26.633125 -76.2125 25.82875 -76 25 C-73.92353453 25.99188306 -71.98041962 27.01302727 -70.0625 28.2890625 C-63.79445028 32.34904925 -58.36178003 33.04046491 -51 32 C-42.7342692 29.85141554 -38.57725018 24.86587526 -34 18 C-31.3925267 17.88364822 -28.96823306 17.91750579 -26.375 18.0625 C-20.04065111 18.21975304 -15.01454723 18.194411 -10 14 C-5.64708956 9.8417319 -2.35413908 5.53915078 0 0 Z " fill="#04B469" transform="translate(495,259)"/>
<path d="M0 0 C1.2485686 0.00138269 1.2485686 0.00138269 2.5223608 0.00279331 C3.47453487 0.00141865 4.42670895 0.00004398 5.40773678 -0.00137234 C6.46077496 0.00222294 7.51381313 0.00581821 8.59876156 0.00952244 C10.25221081 0.0093034 10.25221081 0.0093034 11.93906307 0.00907993 C15.60226021 0.00977961 19.26540723 0.01757459 22.92859554 0.02539158 C25.46065398 0.02725556 27.99271277 0.02867956 30.52477169 0.0296793 C36.52067179 0.03311437 42.51655019 0.04100514 48.51244158 0.05102879 C55.33699987 0.06219105 62.16155901 0.06770066 68.98612416 0.07272422 C83.02815593 0.08318779 97.07017162 0.10078653 111.11218929 0.12304783 C113.25393456 3.78603982 115.39002128 7.45225274 117.5208807 11.12158298 C118.24686419 12.3698848 118.97439771 13.61728647 119.70349789 14.86377048 C120.75005132 16.65359043 121.79102313 18.44655295 122.83093929 20.24023533 C123.45935726 21.31901951 124.08777523 22.39780369 124.73523617 23.5092783 C126.11218929 26.12304783 126.11218929 26.12304783 126.11218929 28.12304783 C78.92218929 28.12304783 31.73218929 28.12304783 -16.88781071 28.12304783 C-16.0022459 23.69522378 -15.21842274 21.58868181 -12.98156071 17.85742283 C-12.40277164 16.8854697 -11.82398258 15.91351658 -11.22765446 14.91211033 C-10.62050602 13.9092197 -10.01335758 12.90632908 -9.38781071 11.87304783 C-8.78066227 10.85468845 -8.17351383 9.83632908 -7.54796696 8.78711033 C-2.38029902 0.1551483 -2.38029902 0.1551483 0 0 Z " fill="#A2553A" transform="translate(169.88781070709229,297.8769521713257)"/>
<path d="M0 0 C2.07769328 1.6853629 2.9216681 2.61943752 3.46875 5.27734375 C3.58418266 15.10354895 0.53625666 24.32882933 -6.33984375 31.5390625 C-12.3352185 36.81499228 -18.75510875 40.1368859 -26.84375 39.92578125 C-30.75053018 39.61221074 -34.27291295 39.24236235 -38 38 C-38.185625 38.66 -38.37125 39.32 -38.5625 40 C-42.05333646 47.28522391 -47.42943672 52.23713464 -55 55 C-63.43292747 57.45683714 -71.24275712 55.95044776 -79 52 C-81.35513844 50.14306392 -83.05668508 48.31096909 -85 46 C-85.18433594 46.60585938 -85.36867188 47.21171875 -85.55859375 47.8359375 C-88.79408585 57.18291467 -95.12342755 65.36874481 -104 70 C-111.84080618 72.90400229 -118.73499046 72.90536858 -126.39868164 69.72607422 C-131.80543185 66.13848868 -134.38258281 59.98798366 -137.3125 54.375 C-137.99274205 53.12742991 -138.67567038 51.88132063 -139.36132812 50.63671875 C-143.07725893 43.84543045 -146.59625384 36.95280493 -150 30 C-148.02 28.68 -146.04 27.36 -144 26 C-143.57589844 26.92941406 -143.15179688 27.85882813 -142.71484375 28.81640625 C-138.22478858 38.39432797 -133.85990038 46.27063545 -123.51953125 50.33984375 C-116.0972764 52.28458959 -108.83569548 51.80817092 -102.0234375 48.2421875 C-93.31242127 42.894498 -89.22730869 35.68192606 -86 26 C-83.56740423 27.08115368 -81.82043114 28.1590467 -79.8125 29.9375 C-74.1872744 34.06266544 -67.63515114 35.72876733 -60.6796875 35.46875 C-52.96939038 34.12000998 -46.63592395 30.36823653 -41.8125 24.25 C-40.37905131 22.19922669 -39.11787628 20.23575256 -38 18 C-37.21625 18.165 -36.4325 18.33 -35.625 18.5 C-26.96980957 19.69381937 -19.72139633 19.50414786 -12 15 C-6.6888593 10.77855886 -3.01883593 6.03767187 0 0 Z " fill="#05B468" transform="translate(509,326)"/>
<path d="M0 0 C0.556875 0.721875 1.11375 1.44375 1.6875 2.1875 C6.51819993 8.15826153 6.51819993 8.15826153 13 12 C15.0017058 11.98912116 17.00387088 11.89970968 19 11.75 C22.23046875 11.6875 22.23046875 11.6875 25 12 C27.3125 14.75 27.3125 14.75 29 18 C33.59602902 21.42449221 37.05205718 22.64121268 42.7890625 22.40625 C46.40298576 21.74220756 48.9216825 19.9701232 52 18 C52.99 18 53.98 18 55 18 C55.21914063 18.51949219 55.43828125 19.03898437 55.6640625 19.57421875 C58.29272826 25.35514629 61.18063897 29.09031948 67 32 C73.13224159 32.7978753 78.10672152 32.36839468 83.23828125 28.77734375 C86.53478936 25.45159832 88.26546142 21.29465081 90 17 C90.53367187 17.3609375 91.06734375 17.721875 91.6171875 18.09375 C97.42247759 21.70950162 102.16659494 23.24773778 109 22 C112.97090556 20.05200859 114.7150355 18.42337584 117.1875 14.75 C120 12 120 12 122.546875 11.72265625 C124.48241274 11.78281486 126.41746751 11.86110429 128.3515625 11.95703125 C132.08602561 12.01761988 134.00790729 11.22667364 137 9 C139.18058515 6.44675134 141.13213721 3.78854693 143 1 C143.99 1.33 144.98 1.66 146 2 C145.78201374 10.56091482 143.10701034 15.6762215 137.3125 21.875 C133.02277746 24.62689748 128.99729432 25.33830293 124 26 C124.66 26.78375 125.32 27.5675 126 28.375 C128 31 128 31 128 33 C126.02 33 124.04 33 122 33 C121.76023437 33.60457031 121.52046875 34.20914063 121.2734375 34.83203125 C119.7210994 37.47481545 118.31809563 38.26937489 115.625 39.6875 C114.85414063 40.10386719 114.08328125 40.52023438 113.2890625 40.94921875 C107.47541884 43.61793913 101.59575673 43.74164478 95.5 42 C94.675 41.67 93.85 41.34 93 41 C92.21625 42.051875 91.4325 43.10375 90.625 44.1875 C86.45061668 49.03135989 81.18098605 52.19889866 74.859375 53.41015625 C66.98338853 53.76674619 59.77649392 50.1207838 54 45 C53.34 44.01 52.68 43.02 52 42 C50.5459375 42.2475 50.5459375 42.2475 49.0625 42.5 C39.96858343 43.70521786 33.93560994 43.06957296 26 38 C24.66666667 36.66666667 23.33333333 35.33333333 22 34 C18.85518209 33.19684346 18.85518209 33.19684346 16 33 C17.52206009 30.37098712 18.84365964 28.15634036 21 26 C20.02160156 25.85304687 20.02160156 25.85304687 19.0234375 25.703125 C12.15482789 24.52796465 7.6512996 22.79859402 2.75 17.625 C-0.64833995 12.52749008 -1.35049711 8.07528323 -1 2 C-0.67 1.34 -0.34 0.68 0 0 Z " fill="#04B469" transform="translate(322,173)"/>
<path d="M0 0 C8.476875 -0.2784375 8.476875 -0.2784375 17.125 -0.5625 C18.89762207 -0.64443604 20.67024414 -0.72637207 22.49658203 -0.81079102 C33.47645544 -1.11671159 33.47645544 -1.11671159 37.23632812 1.63916016 C38.8639487 4.01712875 39.91625007 6.33165803 41 9 C42.01099293 10.85204451 43.03775118 12.69554908 44.078125 14.53125 C45.13910412 16.51886939 46.19628161 18.50852189 47.25 20.5 C51.67675483 28.78825598 56.21929607 36.97052129 61.10449219 44.99804688 C64 49.79881339 64 49.79881339 64 52 C42.88 52 21.76 52 0 52 C0 34.84 0 17.68 0 0 Z " fill="#964C34" transform="translate(277,353)"/>
<path d="M0 0 C3.77016416 1.25672139 4.00711403 2.29562331 5.86328125 5.72265625 C6.41419434 6.72538574 6.96510742 7.72811523 7.53271484 8.76123047 C8.12004395 9.85064941 8.70737305 10.94006836 9.3125 12.0625 C10.55900011 14.33844467 11.80776277 16.61315139 13.05859375 18.88671875 C13.53924286 19.76278778 13.53924286 19.76278778 14.02960205 20.65655518 C18.08951961 28.02842439 22.40150802 35.25316385 26.73168945 42.46899414 C27.57219849 43.8881311 27.57219849 43.8881311 28.4296875 45.3359375 C28.92710449 46.16657715 29.42452148 46.9972168 29.93701172 47.85302734 C31 50 31 50 31 53 C24.07 53 17.14 53 10 53 C10.9384375 54.55332031 11.876875 56.10664063 12.84375 57.70703125 C14.06284444 59.74198119 15.28157567 61.77714876 16.5 63.8125 C17.12003906 64.83666016 17.74007812 65.86082031 18.37890625 66.91601562 C19.25869141 68.39038086 19.25869141 68.39038086 20.15625 69.89453125 C20.70087891 70.80050049 21.24550781 71.70646973 21.80664062 72.63989258 C23 75 23 75 23 78 C8.48 78 -6.04 78 -21 78 C-19.58954902 74.47387254 -18.21951805 71.41889881 -16.3984375 68.13671875 C-15.66367188 66.80737305 -15.66367188 66.80737305 -14.9140625 65.45117188 C-14.40617188 64.53916016 -13.89828125 63.62714844 -13.375 62.6875 C-12.859375 61.75615234 -12.34375 60.82480469 -11.8125 59.86523438 C-10.5442719 57.57537808 -9.27248479 55.28749357 -8 53 C-14.93 53 -21.86 53 -29 53 C-27.47793731 49.19484326 -25.9255395 45.89531452 -23.9453125 42.34375 C-23.3356665 41.24780518 -22.72602051 40.15186035 -22.09790039 39.02270508 C-21.44040603 37.84839216 -20.78276971 36.67415871 -20.125 35.5 C-19.45356027 34.29654307 -18.78225617 33.09301046 -18.11108398 31.8894043 C-12.15116618 21.21571142 -6.10142764 10.59340321 0 0 Z " fill="#924C34" transform="translate(223,161)"/>
<path d="M0 0 C25.74 0 51.48 0 78 0 C78 39.6 78 79.2 78 120 C40.71 120 3.42 120 -35 120 C-35 110.76 -35 101.52 -35 92 C-31.37 92 -27.74 92 -24 92 C-24 87.05 -24 82.1 -24 77 C-45.78 77 -67.56 77 -90 77 C-87.69 72.71 -85.38 68.42 -83 64 C-59.24 64 -35.48 64 -11 64 C-11 82.15 -11 100.3 -11 119 C-7.37 119 -3.74 119 0 119 C0 79.73 0 40.46 0 0 Z M1 1 C1 39.94 1 78.88 1 119 C26.08 119 51.16 119 77 119 C77 80.06 77 41.12 77 1 C51.92 1 26.84 1 1 1 Z " fill="#A2553A" transform="translate(187,345)"/>
<path d="M0 0 C1.9050293 0.89941406 1.9050293 0.89941406 4 3 C4.92907889 6.14463792 5.19079682 9.35463847 5.51953125 12.609375 C5.63529007 13.61272888 5.75104889 14.61608276 5.87031555 15.64984131 C6.1250659 17.88274515 6.3711163 20.11665327 6.60992432 22.35131836 C7.01947059 26.18212358 7.45172538 30.01008787 7.88818359 33.83789062 C8.76662439 41.58012728 9.61147399 49.32584197 10.45092773 57.0723877 C10.77104437 60.01901345 11.09421614 62.96530114 11.41737652 65.91159439 C11.73001137 68.76469617 12.04103951 71.61797123 12.35154152 74.47130585 C12.4990298 75.82534242 12.64695164 77.17933184 12.79532433 78.53327179 C13.00015785 80.40514498 13.20265075 82.27727386 13.4050293 84.14941406 C13.52033493 85.21033264 13.63564056 86.27125122 13.75444031 87.36431885 C14 90 14 90 14 93 C13.01 93 12.02 93 11 93 C10.67 91.68 10.34 90.36 10 89 C5.82137368 90.31721085 5.82137368 90.31721085 1.875 92.1875 C0 93 0 93 -1.90136719 92.89648438 C-5.05491657 91.54936556 -5.82876135 89.44351055 -7.453125 86.46875 C-8.38125 84.78845703 -8.38125 84.78845703 -9.328125 83.07421875 C-9.96884331 81.88286268 -10.60946715 80.6914558 -11.25 79.5 C-11.90509032 78.30795571 -12.56132755 77.11654094 -13.21875 75.92578125 C-18 67.19698661 -18 67.19698661 -18 66 C-14.7 66 -11.4 66 -8 66 C-8 61.05 -8 56.1 -8 51 C-9.20914063 51.2784375 -10.41828125 51.556875 -11.6640625 51.84375 C-17.02294116 52.68913754 -21.92905029 53.24895834 -27 51 C-33.93131087 43.96675809 -39.96895468 32.7202084 -42 23 C-41.443125 23.2165625 -40.88625 23.433125 -40.3125 23.65625 C-32.60170261 26.46964905 -26.17904247 27.11884098 -18.3671875 24.2265625 C-9.8780518 19.82790143 -4.28860203 12.85628175 -1 4 C-0.64067493 2.67343512 -0.2978173 1.34171299 0 0 Z " fill="#A2553B" transform="translate(423,371)"/>
<path d="M0 0 C28.71 0 57.42 0 87 0 C87 7.92 87 15.84 87 24 C58.29 24 29.58 24 0 24 C0 16.08 0 8.16 0 0 Z " fill="#632C30" transform="translate(89,102)"/>
<path d="M0 0 C0.86825912 0.00222061 1.73651825 0.00444122 2.63108826 0.00672913 C3.61202957 0.00680466 4.59297089 0.00688019 5.6036377 0.00695801 C6.6702916 0.01211929 7.7369455 0.01728058 8.83592224 0.02259827 C10.46520912 0.02472069 10.46520912 0.02472069 12.12741089 0.02688599 C15.61230674 0.03250403 19.09713941 0.04505959 22.58201599 0.05775452 C24.93813486 0.06276719 27.29425473 0.0673305 29.65037537 0.07142639 C35.44011063 0.08247933 41.2298088 0.09923501 47.01951599 0.12025452 C49.16126126 3.78324651 51.29734798 7.44945942 53.4282074 11.11878967 C54.15419089 12.36709149 54.88172441 13.61449316 55.61082458 14.86097717 C56.65737801 16.65079712 57.69834983 18.44375964 58.73826599 20.23744202 C59.36668396 21.3162262 59.99510193 22.39501038 60.64256287 23.50648499 C62.01951599 26.12025452 62.01951599 26.12025452 62.01951599 28.12025452 C35.61951599 28.12025452 9.21951599 28.12025452 -17.98048401 28.12025452 C-11.05257703 14.26444056 -11.05257703 14.26444056 -7.16798401 7.93275452 C-6.77417542 7.27984436 -6.38036682 6.6269342 -5.97462463 5.95423889 C-2.45277881 0.14893214 -2.45277881 0.14893214 0 0 Z " fill="#A2553A" transform="translate(201.98048400878906,241.87974548339844)"/>
<path d="M0 0 C4.61632068 3.38273186 8.79655386 7.45216159 10.625 12.9375 C11.84554132 28.68448393 11.84554132 28.68448393 6.625 34.9375 C0.41240995 40.7220828 -5.29125525 43.46996648 -13.8203125 43.2421875 C-21.08639501 42.3755905 -25.36276292 38.37532648 -29.9296875 32.9375 C-34.42994834 26.71011203 -34.1742322 20.44186966 -33.375 12.9375 C-31.22013851 6.56311903 -26.09762413 2.22544906 -20.375 -1.0625 C-13.9897374 -3.21736088 -5.88256291 -3.46367121 0 0 Z " fill="#FC9538" transform="translate(237.375,365.0625)"/>
<path d="M0 0 C1.39453125 1.70703125 1.39453125 1.70703125 2.8125 3.8125 C7.0765783 9.68348465 11.81193245 12.68218762 19 14 C27.80661219 14.12972097 34.13427463 11.29296009 41 6 C41.37511719 6.80824219 41.75023437 7.61648438 42.13671875 8.44921875 C46.12911718 16.78599027 50.0054122 23.45456054 59 27 C65.7933581 28.65609227 71.77780726 28.26244701 78 25 C83.96149145 20.98684678 87.26806261 16.55935463 90 10 C90.65825023 8.66249155 91.32275403 7.32799101 92 6 C92.56847656 6.40992188 93.13695312 6.81984375 93.72265625 7.2421875 C100.88735041 12.24192399 106.67593522 14.76414057 115.51171875 13.59765625 C122.76827526 11.85471567 127.71659759 6.88412026 132 1 C132.33 0.34 132.66 -0.32 133 -1 C133.80824219 -0.9278125 134.61648438 -0.855625 135.44921875 -0.78125 C137.05216797 -0.64203125 137.05216797 -0.64203125 138.6875 -0.5 C139.74324219 -0.4071875 140.79898438 -0.314375 141.88671875 -0.21875 C144.60636025 -0.0276585 147.27539856 0.04043935 150 0 C150 0.66 150 1.32 150 2 C150.639375 2.28875 151.27875 2.5775 151.9375 2.875 C154 4 154 4 155 6 C149.17676862 8.54104642 144.36958763 9.68717543 138 9 C137.01 8.505 137.01 8.505 136 8 C135.61134766 8.88171875 135.61134766 8.88171875 135.21484375 9.78125 C131.52868787 16.51352183 124.81050737 20.08586129 117.7265625 22.33984375 C108.7440023 24.51470431 102.08456324 22.04228162 94 18 C93.79375 18.680625 93.5875 19.36125 93.375 20.0625 C89.28330758 28.8038429 82.66068175 32.27578187 74 36 C67.03965666 38.32011445 60.15793235 37.39881082 53.5234375 34.46875 C46.88555649 30.60521554 41.65879108 25.03090079 37 19 C36.09121094 19.433125 36.09121094 19.433125 35.1640625 19.875 C28.05558689 23.0246015 21.91173744 24.5344698 14.32421875 22.1640625 C11.83980645 21.18502002 9.42502596 20.11673464 7 19 C6.17757813 18.79375 5.35515625 18.5875 4.5078125 18.375 C0.59257841 16.2283296 -0.80113409 12.75047708 -2.8125 8.875 C-3.21919922 8.12089844 -3.62589844 7.36679687 -4.04492188 6.58984375 C-5.04344706 4.73376165 -6.02355678 2.86779334 -7 1 C-3.375 -1.125 -3.375 -1.125 0 0 Z " fill="#009D5F" transform="translate(328,290)"/>
<path d="M0 0 C1.63984529 0.00031732 3.27971127 0.01165397 4.91943359 0.03173828 C6.21365738 0.03598312 6.21365738 0.03598312 7.5340271 0.04031372 C10.29544829 0.05152746 13.05654759 0.07663394 15.81787109 0.10205078 C17.68765808 0.11207905 19.55745015 0.12120517 21.42724609 0.12939453 C26.01601217 0.14977093 30.60408045 0.18891679 35.19287109 0.22705078 C35.19287109 9.46705078 35.19287109 18.70705078 35.19287109 28.22705078 C17.04287109 28.22705078 -1.10712891 28.22705078 -19.80712891 28.22705078 C-18.36181455 24.61376488 -16.96108227 21.55396799 -15.05712891 18.21533203 C-14.53119141 17.29300781 -14.00525391 16.37068359 -13.46337891 15.42041016 C-12.91681641 14.46972656 -12.37025391 13.51904297 -11.80712891 12.53955078 C-11.26056641 11.57726562 -10.71400391 10.61498047 -10.15087891 9.62353516 C-9.62494141 8.70507812 -9.09900391 7.78662109 -8.55712891 6.84033203 C-8.07759766 6.00284424 -7.59806641 5.16535645 -7.10400391 4.30249023 C-4.87867088 0.74120333 -4.37167348 0.26071927 0 0 Z " fill="#A2553A" transform="translate(140.80712890625,352.77294921875)"/>
<path d="M0 0 C4.87949513 -0.20736574 9.74362048 -0.3860918 14.62402344 -0.49438477 C16.28112654 -0.53951672 17.93787369 -0.60084462 19.59375 -0.67895508 C33.26598178 -1.30751621 33.26598178 -1.30751621 37.26708984 1.70947266 C38.86920681 4.07105816 39.92919383 6.35796191 41 9 C41.90638203 10.60411109 42.83089687 12.19811452 43.7734375 13.78125 C44.64461086 15.35196257 45.51181514 16.92488321 46.375 18.5 C46.82488281 19.30953125 47.27476562 20.1190625 47.73828125 20.953125 C51 26.8618921 51 26.8618921 51 28 C34.17 28 17.34 28 0 28 C0 18.76 0 9.52 0 0 Z " fill="#A2553A" transform="translate(277,353)"/>
<path d="M0 0 C7.26 0.33 14.52 0.66 22 1 C18.51165048 9.7208738 13.52650308 17.7699944 9 26 C31.77 26 54.54 26 78 26 C78 26.99 78 27.98 78 29 C54.24 29 30.48 29 6 29 C5.01 31.475 5.01 31.475 4 34 C2.73786012 37.14446025 1.49553258 39.66369756 -1 42 C-4.8097553 42.98919433 -8.40919087 42.75972115 -12.3125 42.5 C-13.33923828 42.46390625 -14.36597656 42.4278125 -15.42382812 42.390625 C-17.95304545 42.29651459 -20.4745974 42.16524592 -23 42 C-16.15886624 27.53089281 -8.07835926 13.8005304 0 0 Z " fill="#874430" transform="translate(98,380)"/>
<path d="M0 0 C8.61487994 -0.2490051 17.22694309 -0.45057372 25.84446049 -0.56993389 C29.8464834 -0.62723649 33.84590833 -0.70486868 37.84643555 -0.82983398 C41.71110221 -0.94979312 45.5732797 -1.01520689 49.43966484 -1.04364967 C50.91076302 -1.063902 52.38173172 -1.10345961 53.85176277 -1.16303062 C58.4037001 -1.34007302 62.59273189 -1.33238918 67 0 C70.32874469 3.25849593 72.32451124 6.66956427 74 11 C74 11.66 74 12.32 74 13 C53.54 13 33.08 13 12 13 C12 17.95 12 22.9 12 28 C8.04 28 4.08 28 0 28 C0 18.76 0 9.52 0 0 Z " fill="#A2553A" transform="translate(277,409)"/>
<path d="M0 0 C25.74 0 51.48 0 78 0 C78 39.6 78 79.2 78 120 C40.71 120 3.42 120 -35 120 C-35 110.76 -35 101.52 -35 92 C-27.08 92 -19.16 92 -11 92 C-11 100.91 -11 109.82 -11 119 C-7.37 119 -3.74 119 0 119 C0 79.73 0 40.46 0 0 Z M1 1 C1 39.94 1 78.88 1 119 C26.08 119 51.16 119 77 119 C77 80.06 77 41.12 77 1 C51.92 1 26.84 1 1 1 Z " fill="#954B35" transform="translate(187,345)"/>
<path d="M0 0 C28.71 0 57.42 0 87 0 C87 3.96 87 7.92 87 12 C58.29 12 29.58 12 0 12 C0 8.04 0 4.08 0 0 Z " fill="#6D3134" transform="translate(89,102)"/>
<path d="M0 0 C0.53625 0.9075 1.0725 1.815 1.625 2.75 C4.22061102 6.76747147 7.41050535 8.73257523 12 10 C18.69015692 10.4292589 23.51697424 8.69508258 29 5 C29.36351562 5.67546875 29.72703125 6.3509375 30.1015625 7.046875 C33.47056212 13.0246897 36.12988025 17.63056223 43.09765625 19.58984375 C48.17679277 20.50461105 51.74687082 19.8835308 56.2109375 17.3046875 C60.58519737 14.11472506 63.32517447 10.17673346 65 5 C65.515625 5.268125 66.03125 5.53625 66.5625 5.8125 C67.366875 6.204375 68.17125 6.59625 69 7 C70.051875 7.556875 71.10375 8.11375 72.1875 8.6875 C76.5593589 10.52630761 80.47334681 10.21648632 85 9 C89.37684264 6.64323858 92.59838462 3.6017104 96 0 C98.96404505 2.80804268 101.44499019 5.18315774 103 9 C101.02 9 99.04 9 97 9 C96.76023437 9.60457031 96.52046875 10.20914063 96.2734375 10.83203125 C94.7210994 13.47481545 93.31809563 14.26937489 90.625 15.6875 C89.85414063 16.10386719 89.08328125 16.52023438 88.2890625 16.94921875 C82.47541884 19.61793913 76.59575673 19.74164478 70.5 18 C69.675 17.67 68.85 17.34 68 17 C66.824375 18.5778125 66.824375 18.5778125 65.625 20.1875 C61.45061668 25.03135989 56.18098605 28.19889866 49.859375 29.41015625 C41.98338853 29.76674619 34.77649392 26.1207838 29 21 C28.34 20.01 27.68 19.02 27 18 C25.5459375 18.2475 25.5459375 18.2475 24.0625 18.5 C14.96858343 19.70521786 8.93560994 19.06957296 1 14 C-0.33333333 12.66666667 -1.66666667 11.33333333 -3 10 C-6.14481791 9.19684346 -6.14481791 9.19684346 -9 9 C-4 0 -4 0 0 0 Z " fill="#009E5F" transform="translate(347,197)"/>
<path d="M0 0 C4.25421714 -0.0229132 8.50822157 -0.04283889 12.76245117 -0.05493164 C14.21070073 -0.05997101 15.65894517 -0.06680253 17.10717773 -0.07543945 C19.18474588 -0.08752247 21.26224697 -0.09323211 23.33984375 -0.09765625 C24.59144287 -0.10289307 25.84304199 -0.10812988 27.13256836 -0.11352539 C30 0 30 0 31 1 C31.08767112 3.07262076 31.10695873 5.14820294 31.09765625 7.22265625 C31.09515869 8.35711182 31.09266113 9.49156738 31.09008789 10.66040039 C31.08098389 12.11309326 31.07187988 13.56578613 31.0625 15.0625 C31.041875 19.661875 31.02125 24.26125 31 29 C20.77 29 10.54 29 0 29 C0 19.43 0 9.86 0 0 Z " fill="#964C35" transform="translate(107,436)"/>
<path d="M0 0 C3.67125 -0.185625 7.3425 -0.37125 11.125 -0.5625 C12.2711377 -0.64443604 13.41727539 -0.72637207 14.59814453 -0.81079102 C21.95311752 -0.99069961 21.95311752 -0.99069961 25.01074219 1.90283203 C26.56840221 4.2128087 27.82405228 6.47668898 29 9 C29.37511719 9.67699951 29.75023437 10.35399902 30.13671875 11.05151367 C31.5783736 14.30542979 31.20459392 17.7577288 31.125 21.25 C31.08375 23.8075 31.0425 26.365 31 29 C20.77 29 10.54 29 0 29 C0 19.43 0 9.86 0 0 Z " fill="#864330" transform="translate(359,436)"/>
<path d="M0 0 C9.9 0 19.8 0 30 0 C30 9.24 30 18.48 30 28 C20.1 28 10.2 28 0 28 C0 18.76 0 9.52 0 0 Z " fill="#954B35" transform="translate(315,437)"/>
<path d="M0 0 C1.08885498 0.00999023 2.17770996 0.01998047 3.29956055 0.03027344 C5.37297729 0.08489746 5.37297729 0.08489746 7.48828125 0.140625 C11.88140625 0.223125 16.27453125 0.305625 20.80078125 0.390625 C20.80078125 9.630625 20.80078125 18.870625 20.80078125 28.390625 C10.90078125 28.390625 1.00078125 28.390625 -9.19921875 28.390625 C-9.26109375 24.513125 -9.32296875 20.635625 -9.38671875 16.640625 C-9.41403076 15.42407227 -9.44134277 14.20751953 -9.46948242 12.95410156 C-9.4769751 11.98956055 -9.48446777 11.02501953 -9.4921875 10.03125 C-9.50789795 9.04672852 -9.5236084 8.06220703 -9.53979492 7.04785156 C-8.74085854 0.81442964 -5.88537705 -0.11052351 0 0 Z " fill="#864330" transform="translate(72.19921875,436.609375)"/>
<path d="M0 0 C1.72556747 2.26298965 3.12577852 4.59965231 4.52734375 7.07763672 C5.10419922 8.09664063 5.68105469 9.11564453 6.27539062 10.16552734 C6.87029297 11.22835938 7.46519531 12.29119141 8.078125 13.38623047 C8.68462891 14.45292969 9.29113281 15.51962891 9.91601562 16.61865234 C14.390625 24.56624312 14.390625 24.56624312 14.390625 26.82373047 C-4.749375 26.82373047 -23.889375 26.82373047 -43.609375 26.82373047 C-43.609375 20.55373047 -43.609375 14.28373047 -43.609375 7.82373047 C-43.279375 7.82373047 -42.949375 7.82373047 -42.609375 7.82373047 C-42.609375 13.10373047 -42.609375 18.38373047 -42.609375 23.82373047 C-32.049375 23.49373047 -21.489375 23.16373047 -10.609375 22.82373047 C-14.55388838 15.99995786 -14.55388838 15.99995786 -18.5078125 9.18164062 C-19.23871094 7.91006104 -19.23871094 7.91006104 -19.984375 6.61279297 C-20.73847656 5.30882568 -20.73847656 5.30882568 -21.5078125 3.97851562 C-22.609375 1.82373047 -22.609375 1.82373047 -22.609375 -0.17626953 C-19.1732686 -0.43104381 -15.73579699 -0.65065956 -12.296875 -0.86376953 C-10.83217773 -0.97301758 -10.83217773 -0.97301758 -9.33789062 -1.08447266 C-8.40009766 -1.13925781 -7.46230469 -1.19404297 -6.49609375 -1.25048828 C-5.19998169 -1.33689575 -5.19998169 -1.33689575 -3.87768555 -1.42504883 C-1.609375 -1.17626953 -1.609375 -1.17626953 0 0 Z " fill="#864330" transform="translate(319.609375,326.17626953125)"/>
<path d="M0 0 C-0.66246806 3.28267757 -1.87629059 5.84714174 -3.50390625 8.765625 C-3.94806885 9.56774414 -4.39223145 10.36986328 -4.84985352 11.19628906 C-5.41502686 12.20401367 -5.9802002 13.21173828 -6.5625 14.25 C-8.356875 17.4675 -10.15125 20.685 -12 24 C0.21 24 12.42 24 25 24 C25 24.99 25 25.98 25 27 C4.54 27 -15.92 27 -37 27 C-35.02 23.04 -33.04 19.08 -31 15 C-30.4121875 13.53046875 -29.824375 12.0609375 -29.21875 10.546875 C-23.38180256 -3.07152486 -13.38474747 -1.69768815 0 0 Z " fill="#874430" transform="translate(151,326)"/>
<path d="M0 0 C7.59 0 15.18 0 23 0 C21.10070786 3.62900462 19.21499173 7.22413149 17.2265625 10.796875 C15.77298206 13.44932254 14.54239606 16.0675404 13.4609375 18.890625 C11.66389103 22.90963533 10.45838929 25.23511358 7 28 C-0.19568397 29.580636 -7.73741707 28.79165152 -15 28 C-13.60582632 24.29102741 -11.92181521 20.92161688 -9.9609375 17.48046875 C-9.09082031 15.9480957 -9.09082031 15.9480957 -8.203125 14.38476562 C-7.59984375 13.32966797 -6.9965625 12.27457031 -6.375 11.1875 C-5.76398438 10.11306641 -5.15296875 9.03863281 -4.5234375 7.93164062 C-3.01844851 5.28615216 -1.50959866 2.64286076 0 0 Z " fill="#914C34" transform="translate(177,242)"/>
<path d="M0 0 C7.59 0 15.18 0 23 0 C23 7.92 23 15.84 23 24 C15.41 24 7.82 24 0 24 C0 16.08 0 8.16 0 0 Z " fill="#964C35" transform="translate(277,437)"/>
<path d="M0 0 C25.74 0 51.48 0 78 0 C78 39.6 78 79.2 78 120 C40.71 120 3.42 120 -35 120 C-35 118.68 -35 117.36 -35 116 C-27.08 116 -19.16 116 -11 116 C-11 116.99 -11 117.98 -11 119 C-7.37 119 -3.74 119 0 119 C0 79.73 0 40.46 0 0 Z M1 1 C1 39.94 1 78.88 1 119 C26.08 119 51.16 119 77 119 C77 80.06 77 41.12 77 1 C51.92 1 26.84 1 1 1 Z " fill="#8E4838" transform="translate(187,345)"/>
<path d="M0 0 C0.66 0.33 1.32 0.66 2 1 C1.91878906 1.99257813 1.83757812 2.98515625 1.75390625 4.0078125 C1.22213916 13.57251417 2.58824233 19.79977455 7.37109375 28.109375 C10.24864767 33.2158256 10.70713019 38.21438935 10 44 C8.91357046 47.14068277 7.55409315 50.06526159 6 53 C5.01 53 4.02 53 3 53 C3.00902344 52.175 3.01804687 51.35 3.02734375 50.5 C2.75650427 39.94903575 -0.47680911 32.36788309 -5 23 C-6.7660667 17.70179989 -7.19747408 11.72782002 -4.91796875 6.53515625 C-3.44607349 4.18945574 -1.96287117 1.96287117 0 0 Z " fill="#9FD1FE" transform="translate(122,17)"/>
<path d="M0 0 C0.99 0 1.98 0 3 0 C2.9071875 0.95777344 2.814375 1.91554687 2.71875 2.90234375 C2.1725734 11.30514272 3.05946954 17.30830047 7 24.8125 C10.87030701 32.20111591 12.60352685 37.82137558 10.44140625 46.15234375 C9.41677517 48.98310419 8.55039494 50.69116728 5.890625 52.18359375 C5.26671875 52.45300781 4.6428125 52.72242188 4 53 C4.06960937 52.00033203 4.06960937 52.00033203 4.140625 50.98046875 C4.4825998 42.24789804 2.18733729 35.82701345 -1.37890625 27.95703125 C-6.47165279 16.50923348 -6.47165279 16.50923348 -5 10 C-3.57741206 6.51220681 -1.89983633 3.25007715 0 0 Z " fill="#9ED0FE" transform="translate(144,44)"/>
<path d="M0 0 C-0.10699219 0.75023437 -0.21398437 1.50046875 -0.32421875 2.2734375 C-1.42273691 11.65218392 -0.29621203 18.3690012 4.625 26.4375 C7.87870459 32.01809635 8.92272198 38.02771459 7.44921875 44.37109375 C6.31716654 47.53503455 4.86249389 50.20625917 3 53 C2.34 53 1.68 53 1 53 C1.020625 52.20980469 1.04125 51.41960937 1.0625 50.60546875 C0.91397266 42.48287961 -0.69584202 36.69432874 -4.0625 29.375 C-7.29803461 22.23172241 -9.88866191 15.95936092 -8 8 C-4.68018721 0 -4.68018721 0 0 0 Z " fill="#9FD1FE" transform="translate(109,44)"/>
<path d="M0 0 C7.59 0 15.18 0 23 0 C26.465 6.435 26.465 6.435 30 13 C9.73247744 14.78685097 9.73247744 14.78685097 5.22363281 11.83837891 C2.51818096 8.79096279 0 4.19179706 0 0 Z " fill="#914C35" transform="translate(344,409)"/>
<path d="M0 0 C0.91644287 0.00523682 1.83288574 0.01047363 2.77709961 0.01586914 C3.76645508 0.0190918 4.75581055 0.02231445 5.77514648 0.02563477 C6.81606445 0.03401367 7.85698242 0.04239258 8.92944336 0.05102539 C10.49662109 0.05779297 10.49662109 0.05779297 12.09545898 0.06469727 C14.68600996 0.07652627 17.27644895 0.0930085 19.86694336 0.11352539 C19.2085662 1.78348399 18.54026079 3.44953445 17.86694336 5.11352539 C17.42572144 6.21277344 17.42572144 6.21277344 16.97558594 7.33422852 C15.81143556 9.67083474 14.77970701 11.32280768 12.86694336 13.11352539 C9.05718806 14.10271972 5.45775249 13.87324654 1.55444336 13.61352539 C0.52770508 13.57743164 -0.4990332 13.54133789 -1.55688477 13.50415039 C-4.08610209 13.41003998 -6.60765404 13.27877131 -9.13305664 13.11352539 C-8.1563156 11.13316053 -7.17659682 9.15426406 -6.19555664 7.17602539 C-5.6502832 6.07387695 -5.10500977 4.97172852 -4.54321289 3.83618164 C-2.62878769 0.13990915 -2.62878769 0.13990915 0 0 Z " fill="#914C35" transform="translate(84.133056640625,408.886474609375)"/>
<path d="M0 0 C22.44 0 44.88 0 68 0 C68 1.32 68 2.64 68 4 C45.56 4 23.12 4 0 4 C0 2.68 0 1.36 0 0 Z " fill="#924D35" transform="translate(99,213)"/>
<path d="M0 0 C22.44 0 44.88 0 68 0 C68 1.32 68 2.64 68 4 C45.56 4 23.12 4 0 4 C0 2.68 0 1.36 0 0 Z " fill="#924D35" transform="translate(99,190)"/>
<path d="M0 0 C22.44 0 44.88 0 68 0 C68 1.32 68 2.64 68 4 C45.56 4 23.12 4 0 4 C0 2.68 0 1.36 0 0 Z " fill="#934D35" transform="translate(99,167)"/>
<path d="M0 0 C22.44 0 44.88 0 68 0 C68 1.32 68 2.64 68 4 C45.56 4 23.12 4 0 4 C0 2.68 0 1.36 0 0 Z " fill="#934D35" transform="translate(99,144)"/>
<path d="M0 0 C1.65 0 3.3 0 5 0 C5 7.92 5 15.84 5 24 C-0.94 24 -6.88 24 -13 24 C-9.92171518 17.69327012 -6.78597173 11.41823739 -3.4375 5.25 C-2.89996094 4.24453125 -2.36242187 3.2390625 -1.80859375 2.203125 C-0.91333984 1.11257813 -0.91333984 1.11257813 0 0 Z " fill="#944B34" transform="translate(88,437)"/>
<path d="M0 0 C19.47 0 38.94 0 59 0 C58.34 1.65 57.68 3.3 57 5 C38.19 4.67 19.38 4.34 0 4 C0 2.68 0 1.36 0 0 Z " fill="#914C35" transform="translate(99,236)"/>
<path d="M0 0 C0.33 0 0.66 0 1 0 C1 39.6 1 79.2 1 120 C-10.88 120 -22.76 120 -35 120 C-35 118.68 -35 117.36 -35 116 C-27.08 116 -19.16 116 -11 116 C-11 116.99 -11 117.98 -11 119 C-7.37 119 -3.74 119 0 119 C0 79.73 0 40.46 0 0 Z " fill="#7C3B35" transform="translate(187,345)"/>
<path d="M0 0 C4.25421714 -0.0229132 8.50822157 -0.04283889 12.76245117 -0.05493164 C14.21070073 -0.05997101 15.65894517 -0.06680253 17.10717773 -0.07543945 C19.18474588 -0.08752247 21.26224697 -0.09323211 23.33984375 -0.09765625 C24.59144287 -0.10289307 25.84304199 -0.10812988 27.13256836 -0.11352539 C30 0 30 0 31 1 C31.08767112 3.07262076 31.10695873 5.14820294 31.09765625 7.22265625 C31.09515869 8.35711182 31.09266113 9.49156738 31.09008789 10.66040039 C31.08098389 12.11309326 31.07187988 13.56578613 31.0625 15.0625 C31.041875 19.661875 31.02125 24.26125 31 29 C20.77 29 10.54 29 0 29 C0 19.43 0 9.86 0 0 Z M1 1 C1 8.92 1 16.84 1 25 C10.57 25 20.14 25 30 25 C30 17.08 30 9.16 30 1 C20.43 1 10.86 1 1 1 Z " fill="#844132" transform="translate(107,436)"/>
<path d="M0 0 C15.18 0 30.36 0 46 0 C45.34 1.65 44.68 3.3 44 5 C22.22 4.505 22.22 4.505 0 4 C0 2.68 0 1.36 0 0 Z " fill="#924D35" transform="translate(99,259)"/>
<path d="M0 0 C4.50735294 5.63419118 4.50735294 5.63419118 6.359375 8.91796875 C6.75253906 9.61470703 7.14570313 10.31144531 7.55078125 11.02929688 C7.94652344 11.74150391 8.34226562 12.45371094 8.75 13.1875 C9.36681641 14.27321289 9.36681641 14.27321289 9.99609375 15.38085938 C13 20.74497768 13 20.74497768 13 23 C8.71 23 4.42 23 0 23 C0 15.41 0 7.82 0 0 Z " fill="#954B34" transform="translate(360,438)"/>
<path d="M0 0 C10.89 0 21.78 0 33 0 C32.34 1.65 31.68 3.3 31 5 C20.77 4.67 10.54 4.34 0 4 C0 2.68 0 1.36 0 0 Z " fill="#924D35" transform="translate(99,282)"/>
<path d="M0 0 C2.49552403 2.27597646 4.06622986 4.60721178 5.6875 7.5625 C6.12449219 8.34753906 6.56148437 9.13257813 7.01171875 9.94140625 C8 12 8 12 8 14 C2.72 14 -2.56 14 -8 14 C-2.25 2.25 -2.25 2.25 0 0 Z " fill="#A2553A" transform="translate(224,200)"/>
<path d="M0 0 C9.9 0 19.8 0 30 0 C30 1.32 30 2.64 30 4 C20.1 4 10.2 4 0 4 C0 2.68 0 1.36 0 0 Z " fill="#874431" transform="translate(315,461)"/>
<path d="M0 0 C7.92 0 15.84 0 24 0 C24 1.32 24 2.64 24 4 C16.08 4 8.16 4 0 4 C0 2.68 0 1.36 0 0 Z " fill="#874431" transform="translate(152,461)"/>
<path d="M0 0 C7.26 0 14.52 0 22 0 C22.66 1.32 23.32 2.64 24 4 C16.41 4 8.82 4 1 4 C0.67 2.68 0.34 1.36 0 0 Z " fill="#7C3F2C" transform="translate(279,294)"/>
<path d="M0 0 C6.6 0 13.2 0 20 0 C19.34 1.65 18.68 3.3 18 5 C12.06 4.67 6.12 4.34 0 4 C0 2.68 0 1.36 0 0 Z " fill="#924D35" transform="translate(99,305)"/>
<path d="M0 0 C7.59 0 15.18 0 23 0 C22.67 0.99 22.34 1.98 22 3 C14.41 3 6.82 3 -1 3 C-0.67 2.01 -0.34 1.02 0 0 Z " fill="#7A3D2B" transform="translate(83,406)"/>
<path d="M0 0 C7.59 0 15.18 0 23 0 C22.67 0.99 22.34 1.98 22 3 C14.41 3 6.82 3 -1 3 C-0.67 2.01 -0.34 1.02 0 0 Z " fill="#793D2B" transform="translate(115,350)"/>
<path d="M0 0 C7.26 0 14.52 0 22 0 C22.33 0.99 22.66 1.98 23 3 C15.41 3 7.82 3 0 3 C0 2.01 0 1.02 0 0 Z " fill="#793D2B" transform="translate(248,239)"/>
<path d="M0 0 C2.24658203 -0.34057617 2.24658203 -0.34057617 5.0078125 -0.29296875 C5.99394531 -0.28330078 6.98007813 -0.27363281 7.99609375 -0.26367188 C9.02863281 -0.23853516 10.06117188 -0.21339844 11.125 -0.1875 C12.68541016 -0.16719727 12.68541016 -0.16719727 14.27734375 -0.14648438 C16.85207627 -0.11105228 19.4257833 -0.06165221 22 0 C21.67 0.99 21.34 1.98 21 3 C13.41 3 5.82 3 -2 3 C-1.34 2.01 -0.68 1.02 0 0 Z " fill="#793D2B" transform="translate(179,239)"/>
<path d="M0 0 C7.26 0 14.52 0 22 0 C22.33 0.99 22.66 1.98 23 3 C15.74 3 8.48 3 1 3 C0.67 2.01 0.34 1.02 0 0 Z " fill="#7A3D2B" transform="translate(343,406)"/>
<path d="M0 0 C7.26 0 14.52 0 22 0 C22.33 0.99 22.66 1.98 23 3 C15.74 3 8.48 3 1 3 C0.67 2.01 0.34 1.02 0 0 Z " fill="#793D2B" transform="translate(311,350)"/>
<path d="M0 0 C0.33 0 0.66 0 1 0 C1 5.28 1 10.56 1 16 C-3.95 15.67 -8.9 15.34 -14 15 C-14.33 14.01 -14.66 13.02 -15 12 C-10.05 12 -5.1 12 0 12 C0 8.04 0 4.08 0 0 Z " fill="#793C2C" transform="translate(389,449)"/>
<path d="M0 0 C2.31 0 4.62 0 7 0 C5.02 3.63 3.04 7.26 1 11 C0.67 11 0.34 11 0 11 C0 7.37 0 3.74 0 0 Z " fill="#9E533A" transform="translate(99,328)"/>
<path d="M0 0 C0 1.32 0 2.64 0 4 C-3.63 4 -7.26 4 -11 4 C-3.92307692 -1.30769231 -3.92307692 -1.30769231 0 0 Z " fill="#7E2B26" transform="translate(434,460)"/>
<path d="M0 0 C3.63 0 7.26 0 11 0 C10.67 0.99 10.34 1.98 10 3 C6.7 3 3.4 3 0 3 C0 2.01 0 1.02 0 0 Z " fill="#793D2B" transform="translate(63,461)"/>
<path d="M0 0 C2.31 0 4.62 0 7 0 C5.515 1.98 5.515 1.98 4 4 C2.68 3.67 1.36 3.34 0 3 C0 2.01 0 1.02 0 0 Z " fill="#904C35" transform="translate(99,328)"/>
</svg>
